<svg xmlns="http://www.w3.org/2000/svg" version="1.1" xmlns:xlink="http://www.w3.org/1999/xlink" width="512" height="512" x="0" y="0" viewBox="0 0 64 64" style="enable-background:new 0 0 512 512" xml:space="preserve" class=""><g><path d="M50.567 2.994H13.433c-5.756 0-10.439 4.683-10.439 10.438v37.135c0 5.756 4.683 10.438 10.439 10.438h37.134c5.756 0 10.439-4.683 10.439-10.438V13.433c0-5.756-4.683-10.439-10.439-10.439zm-37.134 2h37.134c4.653 0 8.439 3.785 8.439 8.438v31.314l-9.097-9.121c-2.623-2.589-6.89-2.59-9.517.005l-5.728 5.728-14.316-14.317c-2.601-2.602-6.858-2.602-9.493 0l-5.861 5.861v-19.47c0-4.653 3.786-8.438 8.439-8.438zm37.134 54.012H13.433c-4.653 0-8.439-3.785-8.439-8.438V35.73l7.271-7.271c1.852-1.828 4.844-1.831 6.669-.005L41.81 51.331a.997.997 0 0 0 1.414 0 .999.999 0 0 0 0-1.414l-7.145-7.145 5.723-5.723c1.847-1.824 4.854-1.824 6.697-.006l10.508 10.535v2.989c-.001 4.654-3.787 8.439-8.44 8.439z" fill="#000000" opacity="1" data-original="#000000" class=""></path><path d="M40.221 24.439a6.591 6.591 0 0 0 6.584-6.584c0-3.615-2.954-6.557-6.584-6.557-3.631 0-6.584 2.941-6.584 6.557a6.59 6.59 0 0 0 6.584 6.584zm0-11.14c2.528 0 4.584 2.044 4.584 4.557 0 2.527-2.056 4.584-4.584 4.584s-4.584-2.057-4.584-4.584c-.001-2.513 2.056-4.557 4.584-4.557z" fill="#000000" opacity="1" data-original="#000000" class=""></path></g></svg>